<?xml version="1.0" standalone="no"?>
<!DOCTYPE svg PUBLIC "-//W3C//DTD SVG 20010904//EN"
 "http://www.w3.org/TR/2001/REC-SVG-20010904/DTD/svg10.dtd">
<svg version="1.0" xmlns="http://www.w3.org/2000/svg"
 width="512.000000pt" height="512.000000pt" viewBox="0 0 512.000000 512.000000"
 preserveAspectRatio="xMidYMid meet">
<metadata>
Created by potrace 1.16, written by Peter Selinger 2001-2019
</metadata>
<g transform="translate(0.000000,512.000000) scale(0.100000,-0.100000)"
fill="#70c437" stroke="none">
<path d="M2241 4044 c-111 -30 -157 -75 -261 -260 -40 -71 -196 -334 -345
-584 -150 -250 -332 -558 -405 -684 -73 -127 -202 -349 -288 -495 -168 -289
-194 -339 -211 -419 -40 -188 44 -372 211 -463 l63 -34 1538 -3 1539 -2 61 29
c79 38 142 92 169 144 60 118 72 212 40 314 -10 32 -65 144 -122 248 -242 444
-343 632 -450 835 -62 118 -125 238 -140 265 -215 398 -276 513 -408 765 -112
215 -178 289 -302 337 -64 24 -606 30 -689 7z m704 -106 c97 -52 120 -85 305
-443 57 -110 106 -204 110 -210 7 -10 119 -219 240 -450 35 -66 66 -124 70
-130 4 -5 36 -64 70 -130 106 -201 203 -383 290 -540 256 -467 252 -457 253
-561 0 -90 -33 -164 -100 -224 -86 -75 26 -71 -1649 -68 -1499 3 -1499 3
-1544 24 -150 70 -222 244 -172 411 20 64 150 301 350 638 36 61 74 126 85
145 137 243 380 653 472 795 76 119 107 171 160 270 27 50 69 124 95 165 25
41 67 114 93 161 49 92 109 155 154 165 16 3 33 7 38 9 6 3 150 3 320 2 l310
-2 50 -27z"/>
<path d="M2245 3829 c-62 -33 -81 -55 -135 -158 -28 -53 -66 -123 -85 -156
-38 -66 -42 -87 -20 -105 29 -24 50 0 115 132 75 153 125 213 187 223 55 9 68
19 68 51 0 27 -3 29 -45 32 -31 2 -57 -4 -85 -19z"/>
<path d="M2580 3836 c-6 -8 -10 -25 -8 -38 3 -22 8 -23 113 -28 61 -3 119 -10
130 -17 31 -17 67 -59 95 -110 31 -57 52 -72 74 -54 22 19 20 44 -8 99 -31 59
-88 115 -146 141 -57 26 -230 30 -250 7z"/>
<path d="M2403 3654 c-6 -3 -26 -33 -43 -67 -18 -34 -56 -105 -85 -157 -29
-52 -84 -153 -123 -225 -153 -282 -326 -593 -476 -855 -246 -428 -332 -583
-338 -607 -3 -12 0 -30 7 -40 27 -36 31 -32 253 352 41 72 98 173 127 225 29
52 128 230 220 395 92 165 211 381 265 480 54 99 112 205 129 235 17 30 53 97
79 148 46 91 46 94 28 108 -21 15 -24 15 -43 8z"/>
<path d="M2517 3483 c-34 -54 -167 -299 -167 -308 0 -4 8 -13 17 -20 15 -11
27 6 110 161 51 95 93 180 93 189 0 28 -29 15 -53 -22z"/>
<path d="M3010 3435 c0 -15 60 -137 143 -290 113 -209 143 -264 250 -465 63
-118 129 -242 147 -275 18 -33 55 -103 83 -155 27 -52 71 -133 97 -180 26 -47
75 -137 110 -200 35 -63 82 -149 106 -190 56 -98 74 -142 74 -182 0 -44 -34
-98 -62 -99 -256 -15 -243 -13 -246 -35 -6 -46 19 -54 146 -48 178 9 241 48
250 158 4 57 -16 111 -86 233 -43 75 -57 100 -209 383 -58 107 -152 281 -208
385 -129 237 -150 277 -243 450 -41 77 -88 165 -104 195 -17 30 -55 102 -86
160 -75 143 -96 170 -133 170 -19 0 -29 -5 -29 -15z"/>
<path d="M2143 3408 c-12 -15 -143 -243 -244 -423 -119 -214 -303 -535 -426
-745 -210 -358 -311 -534 -323 -562 -18 -39 -5 -92 31 -122 17 -14 34 -26 39
-26 22 0 20 24 -4 59 -32 46 -32 50 0 114 24 47 58 106 214 372 49 83 228 393
360 625 115 200 276 490 341 613 46 87 53 107 39 107 -10 0 -22 -6 -27 -12z"/>
<path d="M2610 3273 c-5 -10 -62 -121 -125 -248 -138 -276 -358 -690 -484
-910 -50 -88 -106 -188 -124 -222 -20 -40 -38 -63 -49 -63 -22 0 -50 -42 -42
-63 9 -26 104 -28 924 -25 773 3 775 3 778 24 2 11 -6 28 -16 37 -17 15 -81
17 -779 19 l-760 3 67 120 c36 66 114 206 172 310 123 222 292 540 394 744
l73 144 69 -139 c115 -229 486 -946 529 -1021 26 -47 59 -57 84 -27 15 18 0
50 -222 469 -58 110 -179 344 -268 520 -90 176 -168 326 -173 333 -15 17 -36
15 -48 -5z"/>
<path d="M2861 3248 c-9 -26 -1 -53 33 -113 13 -22 67 -125 121 -230 54 -104
120 -233 148 -285 180 -343 245 -465 284 -540 25 -46 72 -136 106 -200 33 -63
67 -123 75 -132 21 -25 52 -6 52 33 0 32 -20 75 -140 299 -161 302 -273 515
-435 830 -92 179 -174 333 -183 343 -21 24 -51 21 -61 -5z"/>
<path d="M1677 2993 c-13 -21 -43 -72 -67 -113 -371 -652 -450 -795 -448 -809
4 -23 51 -26 70 -4 8 10 73 119 143 243 71 124 184 321 253 439 134 230 150
273 100 279 -22 3 -31 -4 -51 -35z"/>
<path d="M2103 2688 c-6 -7 -46 -78 -90 -158 -141 -256 -137 -248 -123 -265
11 -13 18 -7 50 47 119 204 210 371 205 379 -9 13 -31 11 -42 -3z"/>
<path d="M1094 1952 c-13 -8 -147 -258 -163 -304 -34 -98 4 -223 88 -283 62
-46 107 -55 264 -55 146 0 171 8 165 51 l-3 24 -170 5 c-101 3 -178 10 -190
17 -49 28 -95 104 -95 158 0 14 28 78 62 143 117 223 111 208 98 231 -11 21
-36 27 -56 13z"/>
<path d="M1386 1608 c-21 -30 -20 -55 2 -62 34 -10 2127 -4 2140 6 17 15 15
42 -6 61 -17 16 -106 17 -1070 17 l-1051 0 -15 -22z"/>
<path d="M1520 1376 c-6 -8 -9 -24 -5 -35 5 -16 18 -21 70 -26 35 -4 492 -5
1015 -2 1009 5 985 3 978 51 l-3 21 -1021 3 c-884 2 -1023 0 -1034 -12z"/>
</g>
</svg>
